<svg width="58" height="43" viewBox="0 0 58 43" fill="none" xmlns="http://www.w3.org/2000/svg">
<g clip-path="url(#clip0_2002_362)">
<path d="M9.35705 13.8308C11.895 11.8868 14.6795 10.3163 17.5827 9.08089C20.5954 7.79765 23.7542 6.86873 26.9678 6.35161C30.1266 5.84405 33.3767 5.73871 36.5446 6.16965C39.603 6.58144 42.6979 7.4912 45.3819 9.10004C47.9929 10.6706 50.2297 12.9498 51.7999 15.6503C53.3246 18.2551 54.2284 21.2909 54.0549 24.3649C53.9088 26.9314 52.932 29.4117 51.5352 31.4994C50.3666 33.2423 48.842 34.7075 47.1257 35.8279C45.3272 37.0058 43.3369 37.8103 41.2919 38.3657C39.1009 38.9499 36.8459 39.2467 34.5909 39.3233C32.2172 39.4095 29.8344 39.2754 27.479 38.969C25.151 38.6721 22.8413 38.2029 20.5772 37.5804C18.4226 36.9963 16.2954 36.2684 14.2322 35.3874C12.4519 34.6213 10.7082 33.7403 9.0649 32.6773C6.63646 31.0972 4.21716 28.9903 3.05771 26.1653C2.4643 24.7097 2.29996 23.1008 2.63775 21.559C3.01206 19.8257 3.90675 18.2456 5.00229 16.8953C7.0838 14.3288 9.84091 12.2986 12.6528 10.6993C15.3825 9.14793 18.3039 8.00833 21.3258 7.27094C24.3568 6.53356 27.4699 6.20796 30.5739 6.28458C33.6779 6.36119 36.7728 6.84958 39.749 7.74977C42.7161 8.64995 45.5645 9.96193 48.1755 11.6761C50.9874 13.5244 53.5345 15.8802 55.2965 18.8585C56.9946 21.7218 57.8528 25.1789 56.7664 28.4541C55.6617 31.7675 52.8955 34.1425 50.1566 35.962C47.2535 37.8869 44.1038 39.3521 40.8172 40.3863C37.5306 41.4206 34.1253 42.0335 30.7017 42.2729C27.2508 42.5123 23.7816 42.3686 20.3581 41.8707C17.3271 41.4302 14.3143 40.7502 11.4294 39.6681C8.84579 38.7009 6.28954 37.3985 4.22628 35.4736C2.17215 33.5583 0.720564 30.9727 0.665787 28.0327C0.601881 24.5277 2.45516 21.3292 4.68275 18.868C6.47213 16.8953 8.59017 15.2864 10.8634 13.984C12.8445 12.854 14.9352 11.9443 17.0806 11.226C19.3173 10.4791 21.627 9.94278 23.9551 9.6076C26.3013 9.27242 28.675 9.15751 31.0395 9.27242C33.3493 9.38734 35.6408 9.7321 37.8684 10.3546C40.0047 10.9579 42.0862 11.8198 44.0034 12.9881C45.8749 14.1373 47.573 15.5929 48.9789 17.3262C50.4397 19.1266 51.5626 21.2334 52.3112 23.4647C52.8772 25.1502 53.3519 27.008 53.0507 28.7988C52.722 30.6854 51.4987 32.1985 50.2571 33.5392C47.9199 36.0673 45.0076 38.0975 41.8488 39.2946C41.5475 39.4095 41.6754 39.9171 41.9858 39.8022C45.3545 38.5285 48.422 36.5174 50.9053 33.7881C52.156 32.4187 53.3702 30.8386 53.6806 28.9233C53.991 27.0655 53.5619 25.1693 52.9868 23.4168C52.2199 21.0706 51.0787 18.8872 49.5632 16.9815C48.1299 15.1715 46.377 13.6489 44.4416 12.4422C42.4696 11.2069 40.3151 10.3067 38.1057 9.68422C35.8051 9.03302 33.4406 8.68826 31.0578 8.56376C28.6111 8.43927 26.1553 8.58292 23.736 8.93725C21.3349 9.282 18.9613 9.84702 16.6606 10.6419C14.4513 11.3984 12.2967 12.356 10.27 13.5531C7.8872 14.9513 5.66874 16.6942 3.84285 18.8201C1.62439 21.3962 -0.137601 24.7097 0.00847012 28.2817C0.127153 31.3174 1.62439 33.9988 3.75155 35.9907C5.88785 37.9826 8.508 39.3329 11.1738 40.3384C14.1135 41.4493 17.2084 42.1484 20.3033 42.6081C23.8181 43.1252 27.3786 43.288 30.9209 43.039C34.454 42.79 37.9688 42.1484 41.3558 41.0471C44.7155 39.9554 47.9564 38.4136 50.9053 36.4025C53.708 34.4872 56.4286 31.9878 57.5241 28.5594C58.6014 25.1789 57.7432 21.5782 56.0177 18.6095C54.2284 15.5258 51.6174 13.0647 48.7325 11.1303C46.0393 9.32989 43.0904 7.96045 40.0229 7.02196C36.9646 6.08346 33.7875 5.58549 30.6013 5.4993C27.3969 5.41311 24.1833 5.76744 21.0702 6.53356C17.9661 7.29968 14.9443 8.49673 12.1507 10.1056C10.7539 10.91 9.42095 11.8102 8.15195 12.8157C6.7734 13.9074 5.44963 15.1045 4.34497 16.5026C3.22204 17.92 2.29996 19.5575 1.89827 21.3579C1.54222 22.9763 1.6609 24.6714 2.24519 26.2227C3.38637 29.2585 5.88785 31.5281 8.4441 33.2423C10.1239 34.3627 11.9316 35.2821 13.7757 36.0865C15.8755 36.9963 18.0392 37.7432 20.2394 38.3465C22.6039 38.9977 25.0141 39.4861 27.4425 39.7926C29.8618 40.099 32.3085 40.2331 34.7461 40.1277C37.0832 40.0224 39.4295 39.7064 41.6936 39.0743C43.7934 38.4902 45.8475 37.6187 47.6826 36.3738C49.4902 35.1576 51.0696 33.587 52.2747 31.7196C53.7171 29.4979 54.6666 26.8644 54.7762 24.1638C54.8948 21.0036 53.9271 17.8721 52.3568 15.2098C50.7227 12.4518 48.4129 10.096 45.7197 8.48716C42.9444 6.83043 39.7764 5.91109 36.6268 5.48972C33.3493 5.04921 30.017 5.19285 26.7578 5.74828C23.4803 6.3133 20.285 7.31882 17.2449 8.71698C14.4056 10.0194 11.7033 11.6761 9.24749 13.6584C9.16532 13.7255 9.25663 13.9074 9.35705 13.8308Z" fill="#81C400"/>
<path d="M15.6172 17.5C15.6172 17.5 25.6556 30.8846 27.8864 32C30.1172 33.1154 47.9633 3 47.9633 3" stroke="#004A74" stroke-width="4" stroke-linecap="round"/>
</g>
<defs>
<clipPath id="clip0_2002_362">
<rect width="58" height="43" fill="white"/>
</clipPath>
</defs>
</svg>
