<svg width="200" height="65" viewBox="0 0 200 65" fill="none" xmlns="http://www.w3.org/2000/svg">
<g clip-path="url(#clip0_2004_266)">
<path d="M11.2223 55.0361C11.1643 48.3692 15.1978 41.1348 21.9903 38.62C23.856 37.9305 25.7937 37.7425 27.7613 37.689C29.4855 37.6407 31.2291 37.6187 32.8049 36.7772C33.9679 36.1553 34.2894 35.2488 33.8616 34.0209C33.404 32.7121 32.8822 31.456 34.3078 30.3036C34.9209 29.8055 34.7584 28.9658 34.1989 28.3887C33.7887 27.9644 33.9398 27.6772 34.2297 27.31C35.2916 25.9248 35.2512 25.5621 33.9942 24.3763C33.05 23.4768 33.0834 22.8909 34.1524 22.1197C34.343 21.9818 34.5476 21.8632 34.7321 21.7157C36.0532 20.6581 36.004 19.6383 34.5907 18.723C33.8001 18.2083 33.0245 17.6769 32.2313 17.1736C30.594 16.1902 29.408 14.6033 28.9286 12.7544C28.1407 9.74599 26.68 7.16356 24.3804 5.06423C24.2012 4.89998 23.8894 4.71025 23.9983 4.39228C24.1063 4.0743 24.4129 4.17444 24.6114 4.2289C28.8153 5.36025 32.5291 3.63336 36.3026 2.22619C43.7864 -0.560901 51.7981 4.08133 54.3515 11.1338C56.0029 15.7102 55.3529 20.0582 53.3555 24.2902C51.7252 27.7466 50.239 31.2338 49.4581 34.9976C49.2702 36.0066 49.181 37.0316 49.192 38.0579C49.1472 41.5363 49.1586 45.0252 48.7194 48.4746C48.0334 53.7852 45.8365 58.3238 41.4297 61.5756C40.8365 62.0305 40.1555 62.3577 39.4297 62.5365C37.1784 63.0442 35.6219 61.9173 35.2609 59.5878C34.9236 57.3936 35.188 55.1634 34.8902 52.9675C34.4958 50.0592 33.765 47.2738 32.1514 44.7669C29.6507 40.8933 25.5109 40.8933 23.054 44.8117C21.2824 47.6366 20.563 50.8137 20.223 54.0944C20.0228 56.0936 20.3109 58.1078 19.9261 60.1166C19.5045 62.3301 17.0714 63.1742 15.1082 62.295C12.7278 61.2295 11.5016 59.3559 11.2328 56.8121C11.1977 56.2207 11.1936 55.6278 11.2223 55.0361Z" fill="#4585E0"/>
<path d="M11.2223 55.0361C11.1643 48.3692 15.1978 41.1348 21.9903 38.62C23.856 37.9305 25.7937 37.7425 27.7613 37.689C29.4855 37.6407 31.2291 37.6187 32.8049 36.7772C33.9679 36.1553 34.2894 35.2488 33.8616 34.0209C33.404 32.7121 32.8822 31.456 34.3078 30.3036C34.9209 29.8055 34.7584 28.9658 34.1989 28.3887C33.7887 27.9644 33.9398 27.6772 34.2297 27.31C35.2916 25.9248 35.2512 25.5621 33.9942 24.3763C33.05 23.4768 33.0834 22.8909 34.1524 22.1197C34.343 21.9818 34.5476 21.8632 34.7321 21.7157C36.0532 20.6581 36.004 19.6383 34.5907 18.723C33.8001 18.2083 33.0245 17.6769 32.2313 17.1736C30.594 16.1902 29.408 14.6033 28.9286 12.7544C28.1407 9.74599 26.68 7.16356 24.3804 5.06423C24.2012 4.89998 23.8894 4.71025 23.9983 4.39228C24.1063 4.0743 24.4129 4.17444 24.6114 4.2289C28.8153 5.36025 32.5291 3.63336 36.3026 2.22619C43.7864 -0.560901 51.7981 4.08133 54.3515 11.1338C56.0029 15.7102 55.3529 20.0582 53.3555 24.2902C51.7252 27.7466 50.239 31.2338 49.4581 34.9976C49.2702 36.0066 49.181 37.0316 49.192 38.0579C49.1472 41.5363 49.1586 45.0252 48.7194 48.4746C48.0334 53.7852 45.8365 58.3238 41.4297 61.5756C40.8365 62.0305 40.1555 62.3577 39.4297 62.5365C37.1784 63.0442 35.6219 61.9173 35.2609 59.5878C34.9236 57.3936 35.188 55.1634 34.8902 52.9675C34.4958 50.0592 33.765 47.2738 32.1514 44.7669C29.6507 40.8933 25.5109 40.8933 23.054 44.8117C21.2824 47.6366 20.563 50.8137 20.223 54.0944C20.0228 56.0936 20.3109 58.1078 19.9261 60.1166C19.5045 62.3301 17.0714 63.1742 15.1082 62.295C12.7278 61.2295 11.5016 59.3559 11.2328 56.8121C11.1977 56.2207 11.1936 55.6278 11.2223 55.0361Z" fill="url(#paint0_linear_2004_266)"/>
<path d="M21.7839 13.8524C21.4413 23.4549 16.5136 31.5272 7.17384 35.4386C6.35959 35.7776 5.8106 35.7425 5.6358 34.6419C4.95418 30.3431 2.78547 26.5959 1.18418 22.6345C-1.70832 15.4405 0.688776 7.33487 7.04648 3.43047C10.047 1.58939 13.3093 0.754934 16.8255 1.77034C18.5005 2.24466 19.2059 3.6202 19.8471 5.12574C21.0715 7.99716 21.5626 11.003 21.7839 13.8524Z" fill="#4585E0"/>
<path d="M21.7839 13.8524C21.4413 23.4549 16.5136 31.5272 7.17384 35.4386C6.35959 35.7776 5.8106 35.7425 5.6358 34.6419C4.95418 30.3431 2.78547 26.5959 1.18418 22.6345C-1.70832 15.4405 0.688776 7.33487 7.04648 3.43047C10.047 1.58939 13.3093 0.754934 16.8255 1.77034C18.5005 2.24466 19.2059 3.6202 19.8471 5.12574C21.0715 7.99716 21.5626 11.003 21.7839 13.8524Z" fill="url(#paint1_linear_2004_266)"/>
<path d="M80.8363 19.0534C80.8363 20.6951 80.2733 21.9828 79.1481 22.9148C78.0238 23.8476 76.4339 24.3501 74.3802 24.4212V25.7317H72.7614V24.4212C70.7077 24.3386 69.1126 23.8301 67.9751 22.8972C66.8508 21.9653 66.2869 20.6837 66.2869 19.0534C66.2869 17.4126 66.8499 16.1249 67.9751 15.1921C69.1126 14.2601 70.7069 13.7515 72.7614 13.669V12.4111H74.3802V13.669C76.4225 13.7515 78.0062 14.2645 79.1305 15.2096C80.268 16.1425 80.8363 17.424 80.8363 19.0534ZM74.3802 23.0395C75.9332 22.9446 77.1181 22.5608 77.9298 21.888C78.7546 21.2028 79.1656 20.2515 79.1656 19.0359C79.1656 17.843 78.7475 16.9102 77.9122 16.2373C77.0883 15.5522 75.9113 15.1622 74.3794 15.0682L74.3802 23.0395ZM67.9742 19.0526C67.9742 20.2577 68.3862 21.2028 69.2101 21.8871C70.0446 22.5599 71.2286 22.9438 72.7605 23.0378V15.0673C71.2058 15.1622 70.0165 15.5452 69.1925 16.218C68.3809 16.8917 67.9742 17.8369 67.9742 19.0526ZM93.1275 12.8714V25.2697H91.4217V14.413H86.0267L85.9037 18.0442C85.8466 19.7561 85.7069 21.144 85.4873 22.2068C85.2783 23.2696 84.9401 24.0725 84.4772 24.6153C84.0125 25.1467 83.3863 25.4129 82.5975 25.4129C82.2273 25.4116 81.8587 25.3638 81.5004 25.2706L81.6234 23.6948C81.8087 23.7413 81.994 23.7651 82.1794 23.7651C82.6792 23.7651 83.0797 23.5639 83.3801 23.1634C83.6823 22.7496 83.9089 22.1357 84.0591 21.3205C84.2102 20.5063 84.3086 19.432 84.3551 18.0969L84.5466 12.8723H93.1275V12.8714ZM102.405 25.412C101.173 25.412 100.067 25.1397 99.0802 24.5969C98.1115 24.059 97.3058 23.2697 96.7481 22.3122C96.1913 21.3442 95.9128 20.2621 95.9128 19.071C95.9128 17.8773 96.1913 16.7969 96.7481 15.8298C97.3029 14.8743 98.1097 14.0897 99.0802 13.5618C100.066 13.0067 101.174 12.7291 102.405 12.7291C103.622 12.7291 104.725 13.0076 105.711 13.5618C106.679 14.0871 107.48 14.8723 108.026 15.8289C108.583 16.7863 108.86 17.8667 108.86 19.0701C108.86 20.2753 108.583 21.3609 108.026 22.3289C107.474 23.2808 106.674 24.0648 105.711 24.5969C104.725 25.1415 103.622 25.412 102.405 25.412ZM102.405 23.8353C103.298 23.8353 104.098 23.6289 104.806 23.2152C105.513 22.8138 106.097 22.2255 106.494 21.5146C106.915 20.7694 107.131 19.926 107.121 19.0701C107.121 18.1724 106.912 17.3634 106.494 16.644C106.101 15.9257 105.517 15.3308 104.806 14.9259C104.098 14.5122 103.298 14.3058 102.405 14.3058C101.511 14.3058 100.698 14.5122 99.9674 14.9259C99.254 15.3336 98.6647 15.9275 98.2625 16.644C97.8506 17.3855 97.6407 18.2221 97.6538 19.0701C97.6538 19.9687 97.8558 20.783 98.2625 21.5146C98.6682 22.2242 99.257 22.8118 99.9674 23.2161C100.698 23.6298 101.511 23.8353 102.405 23.8353ZM116.426 12.8714C118.004 12.8714 119.244 13.2544 120.149 14.0221C121.055 14.7907 121.507 15.8465 121.507 17.193C121.507 18.5396 121.055 19.5971 120.149 20.364C119.244 21.1317 118.004 21.5146 116.426 21.5146H113.415V25.2697H111.674V12.8723H116.426V12.8714ZM116.374 19.974C117.476 19.974 118.317 19.7368 118.896 19.2651C119.476 18.7811 119.767 18.0898 119.767 17.1921C119.767 16.2944 119.476 15.6111 118.896 15.1385C118.317 14.6536 117.476 14.4121 116.374 14.4121H113.415V19.974H116.374ZM132.769 23.729V25.2697H123.929V12.8723H132.526V14.413H125.669V18.2207H131.778V19.7271H125.669V23.7299L132.769 23.729ZM145.979 12.8714V25.2697H144.239V19.7438H137.242V25.2697H135.502V12.8723H137.242V18.204H144.239V12.8723H145.979V12.8714ZM161.892 23.729V28.0858H160.273V25.2715H149.778V12.8723H151.502V23.7299H158.289V12.8723H160.012V23.7299L161.892 23.729ZM164.208 12.8714H165.93V22.4361L173.135 12.8705H174.737V25.2715H173.031V15.7235L165.808 25.2715H164.208V12.8714ZM187.462 12.8714V25.2697H185.757V21.6569H182.398C182.189 21.6569 182.032 21.6499 181.928 21.6394L179.491 25.2697H177.647L180.344 21.3381C179.474 21.043 178.808 20.5537 178.342 19.8677C177.879 19.172 177.647 18.3261 177.647 17.3344C177.647 15.9299 178.089 14.8372 178.97 14.0581C179.864 13.2676 181.065 12.8714 182.572 12.8714H187.462ZM179.404 17.3169C179.404 18.2383 179.665 18.9463 180.188 19.4426C180.722 19.9274 181.505 20.169 182.538 20.169H185.757V14.4121H182.642C181.597 14.4121 180.797 14.6598 180.24 15.1561C179.684 15.6523 179.404 16.3717 179.404 17.3169ZM76.5929 39.871V42.5913H75.9956V40.4534H68.3133V31.5967H68.9475V39.871H74.5542V31.5967H75.1875V39.871H76.5929ZM83.6603 37.3026H78.0791C78.0958 37.8182 78.2249 38.2776 78.4647 38.6817C78.7054 39.0778 79.0269 39.387 79.4344 39.6057C79.849 39.8253 80.3128 39.9342 80.8267 39.9342C81.2492 39.9342 81.6392 39.8587 81.9949 39.7067C82.3594 39.546 82.6625 39.315 82.9023 39.0111L83.2624 39.4283C82.9752 39.7788 82.6089 40.0519 82.1943 40.2259C81.7589 40.4143 81.2888 40.5092 80.8144 40.5043C80.1679 40.5043 79.5917 40.3611 79.0857 40.0739C78.587 39.7938 78.1744 39.3825 77.8929 38.8846C77.6049 38.353 77.4593 37.756 77.4704 37.1515C77.4704 36.5103 77.603 35.9367 77.8683 35.4299C78.124 34.9346 78.5108 34.5189 78.9865 34.2283C79.4665 33.9392 80.0178 33.7902 80.5781 33.7979C81.1666 33.7979 81.6936 33.9411 82.1565 34.2283C82.6291 34.5067 82.998 34.8994 83.2633 35.4053C83.5365 35.9113 83.6735 36.484 83.6735 37.1261L83.6603 37.3026ZM80.5772 34.3548C80.1213 34.3548 79.7111 34.4602 79.3475 34.671C78.9796 34.8767 78.6745 35.1785 78.4647 35.5441C78.2451 35.9306 78.1169 36.3636 78.0914 36.809H83.0639C83.0468 36.3629 82.9188 35.9282 82.6915 35.5441C82.4768 35.1825 82.1728 34.8822 81.8087 34.6719C81.4341 34.4584 81.0092 34.3492 80.5781 34.3557L80.5772 34.3548ZM85.7043 33.8488H86.3262V36.8599H90.7269V33.8488H91.3479V40.4534H90.7269V37.4168H86.3262V40.4534H85.7043V33.8488ZM98.3714 34.418H95.8355V40.4534H95.2136V34.4189H92.6786V33.8488H98.3714V34.418ZM102.971 33.7979C103.575 33.7979 104.122 33.9411 104.612 34.2283C105.101 34.5155 105.482 34.9117 105.755 35.4176C106.037 35.9236 106.178 36.5024 106.178 37.1515C106.178 37.8007 106.037 38.3821 105.755 38.8969C105.492 39.3919 105.096 39.8038 104.612 40.0862C104.111 40.3676 103.545 40.5118 102.971 40.5043C102.426 40.5111 101.889 40.3712 101.417 40.0994C100.956 39.8239 100.581 39.425 100.335 38.9478V42.9076H99.7144V33.8488H100.311V35.4053C100.55 34.9169 100.926 34.5082 101.392 34.2283C101.868 33.9403 102.415 33.7913 102.971 33.7979ZM102.934 39.9342C103.432 39.9342 103.878 39.8174 104.276 39.5803C104.673 39.3451 104.996 39.0034 105.209 38.5938C105.44 38.1722 105.557 37.6917 105.557 37.1515C105.557 36.6105 105.44 36.13 105.209 35.7084C104.996 35.2987 104.673 34.957 104.276 34.7219C103.869 34.4832 103.405 34.3607 102.934 34.368C102.462 34.3608 101.998 34.4833 101.592 34.7219C101.199 34.9609 100.878 35.3017 100.659 35.7084C100.43 36.1544 100.314 36.6502 100.323 37.1515C100.323 37.6917 100.436 38.1722 100.659 38.5938C100.89 39.0155 101.201 39.344 101.592 39.5803C101.989 39.8174 102.437 39.9342 102.934 39.9342ZM118.017 39.8965V42.1741H117.421V40.4534H111.392V33.8488H112.013V39.8965H116.314V33.8488H116.936V39.8965H118.017ZM119.829 33.8488H120.45V39.4792L125.075 33.8488H125.621V40.4534H125V34.823L120.376 40.4534H119.829V33.8488ZM135.836 37.1384C135.836 38.1757 135.505 38.99 134.842 39.5803C134.178 40.1626 133.241 40.4744 132.033 40.5166V42.9076H131.424V40.5166C130.212 40.4753 129.276 40.1626 128.613 39.5803C127.95 38.99 127.62 38.1757 127.62 37.1384C127.62 36.1177 127.95 35.3166 128.613 34.7351C129.285 34.1528 130.221 33.8401 131.424 33.7988V31.0653H132.033V33.7979C133.241 33.8401 134.178 34.1528 134.842 34.7351C135.505 35.3166 135.836 36.1177 135.836 37.1384ZM128.242 37.1384C128.242 37.9904 128.515 38.6606 129.061 39.1498C129.608 39.64 130.395 39.9053 131.424 39.9474V34.368C130.395 34.4092 129.608 34.6719 129.061 35.1523C128.515 35.6328 128.242 36.2942 128.242 37.1384ZM132.033 39.9474C133.059 39.9053 133.847 39.6435 134.394 39.163C134.949 38.6729 135.227 37.9992 135.227 37.1384C135.227 36.2951 134.949 35.6328 134.394 35.1523C133.847 34.6719 133.059 34.4092 132.033 34.368V39.9474ZM141.113 33.7988C141.718 33.7988 142.266 33.9411 142.754 34.2292C143.244 34.5155 143.625 34.9117 143.898 35.4176C144.18 35.9236 144.32 36.5024 144.32 37.1515C144.32 37.8007 144.18 38.3821 143.898 38.8969C143.635 39.3923 143.239 39.8043 142.754 40.0862C142.254 40.3679 141.688 40.5121 141.113 40.5043C140.568 40.5111 140.032 40.3712 139.559 40.0994C139.098 39.8243 138.724 39.4253 138.478 38.9478V42.9076H137.856V33.8488H138.454V35.4053C138.693 34.9171 139.069 34.5084 139.535 34.2283C140.011 33.9404 140.557 33.7922 141.113 33.7988ZM141.076 39.9342C141.573 39.9342 142.021 39.8174 142.419 39.5803C142.816 39.3431 143.127 39.0146 143.351 38.5938C143.588 38.1508 143.708 37.6542 143.698 37.1515C143.708 36.6486 143.588 36.1516 143.351 35.7084C143.138 35.2988 142.815 34.957 142.419 34.7219C142.012 34.4833 141.547 34.3608 141.076 34.368C140.604 34.3608 140.14 34.4833 139.733 34.7219C139.342 34.9609 139.02 35.3017 138.801 35.7084C138.571 36.1544 138.456 36.6502 138.465 37.1515C138.465 37.6917 138.577 38.1722 138.801 38.5938C139.034 39.0155 139.344 39.344 139.733 39.5803C140.131 39.8174 140.578 39.9342 141.076 39.9342ZM148.927 40.5043C148.343 40.5119 147.768 40.3633 147.261 40.0739C146.775 39.7896 146.375 39.3785 146.105 38.8846C145.82 38.3519 145.675 37.7557 145.683 37.1515C145.683 36.5103 145.825 35.9367 146.105 35.4299C146.373 34.9309 146.773 34.5152 147.261 34.2283C147.768 33.9387 148.343 33.7901 148.927 33.7979C149.541 33.7979 150.092 33.9411 150.58 34.2283C151.078 34.5155 151.468 34.9152 151.75 35.4308C152.032 35.9367 152.172 36.5094 152.172 37.1515C152.172 37.7928 152.032 38.3699 151.75 38.8846C151.477 39.3811 151.072 39.7926 150.58 40.0739C150.092 40.3611 149.541 40.5043 148.927 40.5043ZM148.927 39.9342C149.391 39.9421 149.849 39.821 150.248 39.5843C150.647 39.3477 150.973 39.0048 151.189 38.5938C151.428 38.1511 151.548 37.6543 151.538 37.1515C151.548 36.6485 151.428 36.1514 151.189 35.7084C150.977 35.2986 150.654 34.9568 150.257 34.7219C149.856 34.4824 149.395 34.3598 148.927 34.368C148.43 34.368 147.982 34.4857 147.584 34.7219C147.192 34.9625 146.87 35.3029 146.652 35.7084C146.422 36.1541 146.307 36.6501 146.317 37.1515C146.317 37.6917 146.428 38.1722 146.652 38.5938C146.884 39.0155 147.196 39.344 147.584 39.5803C147.982 39.8174 148.43 39.9342 148.927 39.9342ZM158.038 37.0496C158.99 37.2183 159.468 37.762 159.468 38.6817C159.468 39.2553 159.261 39.6944 158.846 39.9975C158.439 40.3014 157.826 40.4534 157.007 40.4534H154.197V33.8488H156.932C157.652 33.8488 158.216 33.9973 158.622 34.2915C159.037 34.5788 159.244 34.9916 159.244 35.5318C159.244 35.9201 159.136 36.2433 158.921 36.5059C158.713 36.7589 158.418 36.939 158.038 37.0496ZM154.806 36.8599H156.894C157.448 36.8599 157.876 36.7545 158.174 36.5437C158.473 36.325 158.622 36.0123 158.622 35.6073C158.622 35.1945 158.473 34.8871 158.174 34.6842C157.884 34.4734 157.458 34.368 156.894 34.368H154.806V36.8599ZM156.993 39.9342C158.228 39.9342 158.846 39.5082 158.846 38.6571C158.846 38.21 158.704 37.8815 158.423 37.6698C158.142 37.459 157.697 37.3536 157.093 37.3536H154.806V39.9342H156.993ZM164.259 40.5043C163.676 40.5119 163.101 40.3633 162.594 40.0739C162.108 39.7896 161.708 39.3785 161.438 38.8846C161.152 38.3522 161.007 37.7557 161.016 37.1515C161.016 36.5103 161.156 35.9367 161.438 35.4299C161.705 34.9305 162.105 34.5147 162.594 34.2283C163.101 33.9388 163.676 33.7902 164.259 33.7979C164.874 33.7979 165.424 33.9411 165.913 34.2283C166.407 34.5118 166.812 34.9285 167.082 35.4308C167.364 35.9367 167.504 36.5094 167.504 37.1515C167.504 37.7928 167.364 38.3699 167.082 38.8846C166.809 39.3813 166.404 39.7929 165.913 40.0739C165.424 40.3611 164.874 40.5043 164.259 40.5043ZM164.259 39.9342C164.727 39.9425 165.188 39.8199 165.59 39.5803C165.987 39.3431 166.298 39.0146 166.522 38.5938C166.76 38.1508 166.88 37.6542 166.871 37.1515C166.88 36.6486 166.76 36.1517 166.522 35.7084C166.309 35.2992 165.987 34.9575 165.59 34.7219C165.188 34.4825 164.727 34.3599 164.259 34.368C163.763 34.368 163.315 34.4857 162.917 34.7219C162.526 34.9609 162.204 35.3017 161.985 35.7084C161.755 36.154 161.64 36.65 161.649 37.1515C161.649 37.6917 161.761 38.1722 161.985 38.5938C162.217 39.0155 162.528 39.344 162.917 39.5803C163.315 39.8174 163.763 39.9342 164.259 39.9342ZM169.53 33.8488H170.151V39.4792L174.775 33.8488H175.322V40.4534H174.7V34.823L170.076 40.4534H169.53V33.8488ZM172.401 32.8369C171.879 32.8369 171.456 32.7017 171.133 32.432C170.809 32.1536 170.643 31.7706 170.636 31.2813H171.095C171.103 31.6257 171.228 31.9006 171.468 32.1026C171.717 32.3046 172.028 32.4065 172.401 32.4065C172.774 32.4065 173.08 32.3055 173.321 32.1026C173.439 32.0013 173.534 31.8751 173.599 31.733C173.663 31.5909 173.695 31.4364 173.693 31.2805H174.166C174.158 31.7706 173.992 32.1536 173.669 32.4311C173.345 32.7017 172.923 32.8369 172.401 32.8369ZM68.0893 46.501H68.7112V52.1314L73.3358 46.501H73.8822V53.1055H73.2612V47.4751L68.6365 53.1055H68.0893V46.501ZM83.6234 46.501V53.1055H83.0525V47.512L80.2294 52.257H79.9439L77.1348 47.5252V53.1046H76.563V46.5001H77.1717L80.1055 51.4981L83.0516 46.5001L83.6234 46.501ZM91.9794 46.501V53.1055H91.3575V47.0711H86.9323V53.1055H86.3113V46.501H91.9794ZM99.7355 46.501V53.1055H99.1136V47.0711H95.7327L95.6458 48.8287C95.6111 49.5957 95.5363 50.3603 95.4218 51.1195C95.3225 51.7353 95.1521 52.2324 94.9115 52.6128C94.6725 52.9913 94.3396 53.1811 93.918 53.1811C93.7369 53.1727 93.5574 53.1432 93.3831 53.0932L93.4454 52.5486C93.5781 52.5829 93.6773 52.5996 93.7441 52.5996C94.0911 52.5996 94.3563 52.4257 94.539 52.0813C94.7226 51.7353 94.8465 51.3048 94.9115 50.7901C94.9782 50.2754 95.0327 49.6043 95.074 48.7786L95.1855 46.501H99.7355ZM104.571 46.4501C105.375 46.4501 105.992 46.6617 106.423 47.0825C106.854 47.4971 107.07 48.1076 107.07 48.9183V53.1055H106.473V51.9285C106.267 52.3167 105.963 52.6207 105.565 52.8394C105.167 53.0511 104.691 53.1556 104.136 53.1556C103.415 53.1556 102.843 52.9826 102.42 52.6373C102.219 52.4734 102.058 52.265 101.951 52.0286C101.843 51.7909 101.791 51.5316 101.799 51.2706C101.799 50.7234 101.989 50.2807 102.371 49.9425C102.762 49.5973 103.377 49.4242 104.223 49.4242H106.448V48.8919C106.448 48.2762 106.282 47.808 105.951 47.4883C105.628 47.1677 105.152 47.0069 104.521 47.0069C104.09 47.0069 103.676 47.0834 103.278 47.2353C102.889 47.3864 102.558 47.5893 102.284 47.8414L101.973 47.3864C102.312 47.082 102.709 46.8495 103.141 46.703C103.599 46.5343 104.083 46.4487 104.571 46.4501ZM104.223 52.6373C104.762 52.6373 105.217 52.5109 105.591 52.2579C105.972 52.0049 106.257 51.6378 106.448 51.1573V49.917H104.235C103.598 49.917 103.134 50.0347 102.843 50.271C102.561 50.5082 102.42 50.8323 102.42 51.246C102.42 51.6764 102.578 52.0172 102.892 52.2702C103.209 52.5144 103.65 52.6373 104.223 52.6373ZM109.596 46.501H110.217V49.5121H114.617V46.5019H115.239V53.1064H114.617V50.0681H110.217V53.1046H109.596V46.501ZM122.262 47.0702H119.726V53.1046H119.105V47.0702H116.568V46.501H122.262V47.0702ZM125.743 46.4501C126.546 46.4501 127.165 46.6617 127.595 47.0825C128.025 47.4971 128.242 48.1076 128.242 48.9183V53.1055H127.644V51.9285C127.438 52.3153 127.122 52.6323 126.736 52.8394C126.339 53.0511 125.863 53.1556 125.307 53.1556C124.587 53.1556 124.015 52.9826 123.591 52.6373C123.39 52.4721 123.23 52.263 123.122 52.026C123.015 51.7891 122.963 51.5307 122.97 51.2706C122.97 50.7234 123.162 50.2807 123.542 49.9425C123.932 49.5973 124.549 49.4242 125.395 49.4242H127.62V48.8919C127.62 48.2762 127.454 47.808 127.122 47.4883C126.799 47.1677 126.323 47.0069 125.692 47.0069C125.263 47.0069 124.847 47.0834 124.45 47.2353C124.083 47.3731 123.745 47.5787 123.454 47.8414L123.144 47.3864C123.484 47.0824 123.881 46.85 124.313 46.703C124.77 46.5343 125.255 46.4487 125.743 46.4501ZM125.395 52.6373C125.933 52.6373 126.389 52.5109 126.762 52.2579C127.144 52.0049 127.429 51.6378 127.62 51.1573V49.917H125.406C124.769 49.917 124.305 50.0347 124.015 50.271C123.734 50.5082 123.591 50.8323 123.591 51.246C123.591 51.6764 123.749 52.0172 124.064 52.2702C124.379 52.5144 124.822 52.6373 125.395 52.6373ZM137.392 52.5495V54.8263H136.795V53.1046H130.766V46.5019H131.388V52.5495H135.689V46.5019H136.311V52.5495H137.392ZM139.205 46.501H139.825V52.1314L144.449 46.501H144.997V53.1055H144.375V47.4751L139.75 53.1055H139.205V46.501ZM147.677 46.501H148.298V52.1314L152.923 46.501H153.469V53.1055H152.848V47.4751L148.224 53.1055H147.677V46.501Z" fill="#141414"/>
</g>
<defs>
<linearGradient id="paint0_linear_2004_266" x1="11.2391" y1="32.0717" x2="55.3256" y2="32.0717" gradientUnits="userSpaceOnUse">
<stop stop-color="#58B7DE"/>
<stop offset="1" stop-color="#80CDF3"/>
</linearGradient>
<linearGradient id="paint1_linear_2004_266" x1="-0.0279294" y1="18.4837" x2="21.7854" y2="18.4837" gradientUnits="userSpaceOnUse">
<stop stop-color="#58B7DE"/>
<stop offset="1" stop-color="#80CDF3"/>
</linearGradient>
<clipPath id="clip0_2004_266">
<rect width="200" height="65" fill="white"/>
</clipPath>
</defs>
</svg>
