<svg width="30" height="37" viewBox="0 0 30 37" fill="none" xmlns="http://www.w3.org/2000/svg">
<path d="M7.8877 26.1821L1.35436 22.765C1.05225 22.6236 0.797064 22.4015 0.618183 22.1243C0.439302 21.847 0.344001 21.5259 0.343253 21.198C0.343253 20.4906 0.787698 19.9139 1.35436 19.6309L26.9321 6.68092C27.7988 6.25651 28.821 6.53945 29.2655 7.39916C29.6877 8.24798 29.3988 9.24916 28.5321 9.67357L5.99881 21.0565L9.77659 22.9065C10.6433 23.3418 10.9433 24.3212 10.4988 25.1918C10.0655 26.0406 9.4877 26.3236 8.75436 26.3236C8.46548 26.3236 8.17659 26.3236 7.8877 26.1821ZM2.0877 16.7906C1.50992 16.7906 0.776587 16.5077 0.487698 15.7895C0.0432532 14.9406 0.343253 13.9395 1.20992 13.515L26.7877 0.56504C27.6544 0.129746 28.6766 0.42357 29.121 1.27239C29.5433 2.1321 29.2544 3.12239 28.3877 3.55769L2.95436 16.6492C2.66548 16.7906 2.37659 16.7906 2.0877 16.7906ZM11.3877 35.5736C10.9433 34.7139 11.2433 33.7236 12.1099 33.2883L26.7766 25.8883C27.6655 25.4639 28.6655 25.7577 29.1099 26.6065C29.5544 27.4662 29.2544 28.4565 28.3877 28.8918L13.8544 36.4224C13.5655 36.5639 13.2766 36.5639 12.9877 36.5639C12.3988 36.5639 11.6766 36.2809 11.3877 35.5736Z" fill="#81C400"/>
<path d="M2.07691 36.0087C1.49914 36.0087 0.776915 35.7148 0.476915 35.0075C0.0435812 34.1587 0.476915 33.1575 1.35469 32.7222L23.8769 21.3501L20.0991 19.5001C19.8939 19.4014 19.7112 19.2628 19.5622 19.0929C19.4132 18.9229 19.3011 18.7251 19.2325 18.5114C19.1639 18.2977 19.1404 18.0726 19.1633 17.8497C19.1862 17.6268 19.2551 17.4109 19.3658 17.2148C19.8102 16.366 20.8214 16.0831 21.6991 16.5075L28.3769 19.9245C28.9547 20.2075 29.3991 20.7734 29.3991 21.4916C29.3991 22.199 28.9547 22.7648 28.3769 23.0587L2.95469 35.7148C2.6658 35.8563 2.3658 36.0087 2.07691 36.0087Z" fill="#81C400"/>
<path d="M13.1299 20.9156C13.1299 20.4624 13.3137 20.0279 13.6408 19.7074C13.968 19.387 14.4117 19.207 14.8743 19.207C15.337 19.207 15.7807 19.387 16.1078 19.7074C16.435 20.0279 16.6188 20.4624 16.6188 20.9156C16.6188 21.3687 16.435 21.8033 16.1078 22.1237C15.7807 22.4441 15.337 22.6241 14.8743 22.6241C14.4117 22.6241 13.968 22.4441 13.6408 22.1237C13.3137 21.8033 13.1299 21.3687 13.1299 20.9156Z" fill="#3F3D3D"/>
</svg>
